<?xml version="1.0" encoding="UTF-8"?>
<!DOCTYPE svg PUBLIC "-//W3C//DTD SVG 1.1//EN" "http://www.w3.org/Graphics/SVG/1.1/DTD/svg11.dtd">
<!-- Creator: CorelDRAW 2021 (64-Bit) -->
<svg xmlns="http://www.w3.org/2000/svg" xml:space="preserve" width="10.7422mm" height="17.3342mm" version="1.1" style="shape-rendering:geometricPrecision; text-rendering:geometricPrecision; image-rendering:optimizeQuality; fill-rule:evenodd; clip-rule:evenodd"
viewBox="0 0 1074.22 1733.42"
 xmlns:xlink="http://www.w3.org/1999/xlink"
 xmlns:xodm="http://www.corel.com/coreldraw/odm/2003">
 <defs>
  <style type="text/css">
   <![CDATA[
    .fil0 {fill:#84716B}
   ]]>
  </style>
 </defs>
 <g id="Capa_x0020_1">
  <metadata id="CorelCorpID_0Corel-Layer"/>
  <path class="fil0" d="M858.66 773.32c-106.93,-34.08 -242.05,-68.49 -355.39,-100.15 -27.8,-7.76 -43.54,-9.84 -63.98,2.43 -44.36,26.62 -34.26,91.79 16.67,108.43 100.07,32.72 246.67,66.58 354.78,99.76 27.08,8.3 45,9.62 63.65,-3.7 42.61,-30.44 32.57,-91.38 -15.73,-106.77z"/>
  <path class="fil0" d="M915.53 645.26l-355.57 -100.38c-97.04,-27.88 -118.53,89.98 -39,113.36 94.36,27.73 189.88,53.78 284.51,79.99 49.14,13.62 99.71,38.34 133.02,13.21 43.02,-32.46 25.46,-92.12 -22.96,-106.18z"/>
  <path class="fil0" d="M752.12 441.4c18.34,6.25 103.73,32.59 115.6,31.21 11.81,-8.9 179.36,-367.8 201.74,-414.56l-107.09 -52.69 -210.25 436.04z"/>
  <path class="fil0" d="M974.4 517.87l-355.62 -100.54c-89.55,-25.45 -120.39,89.88 -34.51,114.5 94.63,27.14 189.35,53.02 284.35,80 49.1,13.93 98.29,37.9 132.28,11.71 19.14,-14.75 26.18,-40.58 20.84,-60.82 -5.81,-22.04 -17.15,-36.51 -47.34,-44.85z"/>
  <path class="fil0" d="M532.56 112.42c0.92,9.01 5.8,18.33 7.9,27.41 5,21.59 21.19,65.8 23.23,85.6 9.58,0.22 21.99,-6.12 32.87,-8.3 65.67,-13.12 130.24,13.84 162.86,71.86 7.37,13.12 20.61,47.29 20.17,63.46l69.96 -143.45c-53.41,-91.48 -203.67,-140.13 -299.69,-103.23 -8.65,3.33 -10.86,4.85 -17.3,6.65z"/>
  <path class="fil0" d="M369.51 842.58c-20.57,12.21 -40.64,24.96 -61.39,37.9 -41.62,25.98 -80.58,49.05 -121.16,74.89 -84.81,53.99 -157.02,152.8 -182.03,267.3 -41.24,188.71 49.06,411.17 273.44,491.88 193.32,69.53 417.83,-13.91 516.13,-207.95 80.41,-158.71 32.58,-284.56 8.84,-444.59 -9.66,-57.06 -20.45,-116.37 -28.86,-173.38 -39.54,-12.27 -81.11,-24.2 -121.29,-34.35 -8.79,-0.73 -2.44,-0.49 -5.88,0.19 17.09,137.19 48.36,290.15 71.38,428.5 18.2,184.03 -123.35,330.9 -291.76,336.52 -223.2,7.43 -391.69,-238.91 -275.37,-453.85 21.87,-40.4 52.07,-74.24 84.12,-98.41 29.61,-22.33 359.46,-218.88 364.47,-228.4 -30.02,-8.62 -122.79,-40.19 -149,-41.89 -12.7,-0.82 -68.46,37.82 -81.64,45.64z"/>
 </g>
</svg>
